<svg width="115" height="115" viewBox="0 0 115 115" fill="none" xmlns="http://www.w3.org/2000/svg">
<path d="M57.5587 30.7275L57.5 59.2646L61.7832 54.8836C65.6556 50.9286 66.2423 50.5027 68.4133 50.5027C70.7015 50.5027 70.7602 50.4418 72.6378 46.5476C73.6352 44.3571 74.3393 42.5926 74.1046 42.5926C73.8699 42.5926 71.9923 44.2963 69.9974 46.3651C67.4745 48.9815 66.2423 49.8333 66.0663 49.2249C65.4796 47.582 63.25 33.4048 63.4847 33.1005C63.8954 32.6746 68.648 34.5609 71.3469 36.2037C72.6964 36.9947 75.1607 39.246 76.8622 41.1931C79.6199 44.3571 80.7347 46.3042 83.199 52.4497C83.6097 53.4841 84.3138 54.1534 85.0179 54.1534C85.6046 54.1534 86.9541 54.336 88.0102 54.5794L89.9464 54.9445L89.5944 52.6323C89.4184 51.3545 88.3036 48.2513 87.1301 45.7566C83.2577 37.2989 74.2219 29.8757 65.4209 27.9894C62.8393 27.4418 62.1352 27.0159 61.9005 25.9815C61.7832 25.2513 60.727 19.5926 59.6122 13.3862L57.6173 2.12963L57.5587 30.7275Z" fill="black"/>
<path d="M47.4668 28.7804C36.9056 32.4921 29.2194 40.7672 26.1684 51.7804L25.2296 55.127L13.6122 57.3175L2.05357 59.5079L10.2679 59.5688C14.7857 59.6296 26.9898 59.4471 37.4337 59.2037L56.4439 58.8386L52.3954 54.701L48.4056 50.5635L41.0714 52.0846C31.5663 53.9709 31.449 53.9709 31.977 51.8413C32.5638 49.3466 35.0281 44.5397 37.023 41.9233C39.1352 39.1243 44.8852 35.0476 48.7576 33.6481C51.574 32.6137 52.2194 31.701 52.2194 28.7196C52.2194 27.0767 52.2781 27.0767 47.4668 28.7804Z" fill="black"/>
<path d="M44.0051 45.8783C47.7602 49.8333 48.9923 50.2593 48.5816 47.3995C48.4643 46.3651 47.5255 45.5132 45.4719 44.3572C40.3087 41.6191 40.1327 41.8625 44.0051 45.8783Z" fill="black"/>
<path d="M61.6658 63.7064C63.7194 66.0185 65.7143 68.0265 66.0663 68.2699C66.477 68.5132 70.4082 68.0873 74.8673 67.2355C79.3265 66.3836 83.0816 65.836 83.199 66.0185C83.375 66.1402 83.023 67.6005 82.4362 69.1826C79.5612 77.2143 72.8724 83.7857 65.4209 86.0979C63.3673 86.7672 63.074 87.0714 62.4286 89.627C61.7245 92.3651 61.7832 92.4868 63.0153 92.4868C63.7781 92.4868 66.0663 91.9392 68.1199 91.209C78.5051 87.6799 86.8367 78.6746 89.3597 68.1482C89.8291 66.3228 90.5332 64.6799 91.0025 64.4365C91.4719 64.1931 95.9311 63.2196 100.918 62.3677C105.906 61.455 110.658 60.5423 111.48 60.2381C112.301 59.9339 101.329 59.6905 85.4286 59.6905L57.9107 59.6296L61.6658 63.7064Z" fill="black"/>
<path d="M52.8648 64.7408L48.5816 69.2434L50.1071 76.6667C50.9286 80.7434 51.6327 84.7593 51.6327 85.5503C51.6327 86.9498 51.574 86.9498 49.4031 86.1587C42.3622 83.6032 36.3775 78.127 33.4439 71.6773C32.4464 69.5476 31.6837 67.3572 31.6837 66.8095C31.6837 66.0794 30.8622 65.6535 28.6327 65.2884C26.9311 64.9841 25.4643 64.7408 25.4056 64.8016C25.3469 64.8016 25.6403 66.3228 26.1097 68.0873C28.926 79.2222 38.7832 89.2011 49.5791 91.9392C51.2219 92.3042 52.6888 92.791 52.9235 93.0344C53.1582 93.2169 54.2143 97.9021 55.2704 103.439L57.2066 113.479L57.3827 99.9101C57.4413 92.4259 57.4413 80.4392 57.3827 73.2593L57.2066 60.1773L52.8648 64.7408Z" fill="black"/>
<path d="M42.3036 72.8334L40.3673 76.9709L44.2398 73.0159C46.352 70.8863 48.1122 69 48.1122 68.9392C48.1122 68.8175 47.2321 68.7566 46.176 68.7566C44.4158 68.7566 44.1224 69.0609 42.3036 72.8334Z" fill="black"/>
<path d="M66.301 71.4947C66.301 73.3201 66.5944 73.746 68.648 74.8413C74.1633 77.7619 74.398 77.5185 70.4082 73.381C68.3546 71.1296 66.5357 69.3651 66.477 69.3651C66.3597 69.3651 66.301 70.3386 66.301 71.4947Z" fill="black"/>
</svg>
