<svg width="42" height="42" viewBox="0 0 42 42" fill="none" xmlns="http://www.w3.org/2000/svg">
<path d="M37.1028 17.8494L33.0874 16.846C32.6313 13.8449 31.2275 11.0683 29.0811 8.92189C26.9347 6.77545 24.1581 5.37165 21.157 4.9156L20.1535 0.907636C20.0892 0.650857 19.9409 0.422942 19.7322 0.26009C19.5235 0.0972389 19.2663 0.00878906 19.0016 0.00878906C18.7369 0.00878906 18.4798 0.0972389 18.2711 0.26009C18.0624 0.422942 17.914 0.650857 17.8497 0.907636L16.8462 4.92302C13.8452 5.37908 11.0686 6.78287 8.92213 8.92931C6.77569 11.0757 5.3719 13.8523 4.91584 16.8534L0.90788 17.8569C0.651101 17.9212 0.423186 18.0695 0.260334 18.2782C0.097483 18.4869 0.0090332 18.7441 0.0090332 19.0088C0.0090332 19.2735 0.097483 19.5306 0.260334 19.7393C0.423186 19.948 0.651101 20.0964 0.90788 20.1607L4.92327 21.1642C5.37932 24.1652 6.78312 26.9418 8.92955 29.0883C11.076 31.2347 13.8526 32.6385 16.8536 33.0946L17.8571 37.1099C17.9215 37.3667 18.0698 37.5946 18.2785 37.7575C18.4872 37.9203 18.7443 38.0088 19.009 38.0088C19.2738 38.0088 19.5309 37.9203 19.7396 37.7575C19.9483 37.5946 20.0966 37.3667 20.161 37.1099L21.1644 33.0946C24.1655 32.6385 26.9421 31.2347 29.0885 29.0883C31.2349 26.9418 32.6387 24.1652 33.0948 21.1642L37.1102 20.1607C37.367 20.0964 37.5949 19.948 37.7577 19.7393C37.9206 19.5306 38.009 19.2735 38.009 19.0088C38.009 18.7441 37.9206 18.4869 37.7577 18.2782C37.5949 18.0695 37.367 17.9212 37.1102 17.8569L37.1028 17.8494ZM30.546 16.2166L23.544 14.459L21.7923 7.45695C23.9162 7.96813 25.8576 9.05607 27.4022 10.6007C28.9469 12.1454 30.0348 14.0868 30.546 16.2106V16.2166ZM16.2109 7.45843L14.4593 14.459L7.45719 16.2106C7.96837 14.0868 9.05632 12.1454 10.601 10.6007C12.1457 9.05607 14.087 7.96813 16.2109 7.45695V7.45843ZM7.45274 21.7936L14.4593 23.5437L16.2109 30.5458C14.087 30.0346 12.1457 28.9467 10.601 27.402C9.05632 25.8573 7.96837 23.9159 7.45719 21.7921L7.45274 21.7936ZM21.7879 30.5517L23.5395 23.5497L30.5416 21.798C30.0298 23.9202 28.9421 25.86 27.3983 27.4035C25.8545 28.947 23.9146 30.0344 21.7923 30.5458L21.7879 30.5517Z" fill="black"/>
</svg>
